<svg width="141.542px" height="141.542px" viewBox="-8.21 0 141.542 141.542" xmlns="http://www.w3.org/2000/svg">
  <g id="popcorn_movie_cinema" data-name="popcorn movie cinema" transform="translate(-835.069 -127.481)">
    <g id="Group_1920" data-name="Group 1920">
      <path id="Path_4489" data-name="Path 4489" d="M959.4,173.13a14.516,14.516,0,1,1-14.747-14.281A14.515,14.515,0,0,1,959.4,173.13Z" fill="#fce4ab"/>
      <path id="Path_4490" data-name="Path 4490" d="M878.922,166.5a17.867,17.867,0,1,1-18.152-17.576A17.867,17.867,0,0,1,878.922,166.5Z" fill="#fce4ab"/>
      <path id="Path_4491" data-name="Path 4491" d="M940.9,145.059a17.867,17.867,0,1,1-18.154-17.576A17.869,17.869,0,0,1,940.9,145.059Z" fill="#fce4ab"/>
      <path id="Path_4492" data-name="Path 4492" d="M920.546,150.414a22.558,22.558,0,1,1-22.918-22.19A22.559,22.559,0,0,1,920.546,150.414Z" fill="#facd7b"/>
      <path id="Path_4493" data-name="Path 4493" d="M954.862,159.241a20.212,20.212,0,1,1-20.535-19.882A20.212,20.212,0,0,1,954.862,159.241Z" fill="#f9b968"/>
      <path id="Path_4494" data-name="Path 4494" d="M928.547,168.712a15.523,15.523,0,1,1-15.77-15.269A15.523,15.523,0,0,1,928.547,168.712Z" fill="#ea8542"/>
      <path id="Path_4495" data-name="Path 4495" d="M858.334,177.886a11.5,11.5,0,1,1-11.687-11.314A11.507,11.507,0,0,1,858.334,177.886Z" fill="#ea8542"/>
      <path id="Path_4496" data-name="Path 4496" d="M908.135,170.381a15.522,15.522,0,1,1-15.771-15.267A15.524,15.524,0,0,1,908.135,170.381Z" fill="#fce4ab"/>
      <path id="Path_4497" data-name="Path 4497" d="M887.07,173.067a14.517,14.517,0,1,1-14.75-14.28A14.515,14.515,0,0,1,887.07,173.067Z" fill="#f9b968"/>
    </g>
    <path id="Path_4498" data-name="Path 4498" d="M841.115,188.493l15.6,72.695,84.236-1.359L954.2,186.669Z" fill="#f39014"/>
    <path id="Path_4499" data-name="Path 4499" d="M863.6,188.13l9.8,72.788,16.843-.272L886.2,187.765Z" fill="#e5eff3"/>
    <path id="Path_4500" data-name="Path 4500" d="M841.115,188.493l15.6,72.695,16.69-.27-9.8-72.788Z" fill="#ed4d55"/>
    <path id="Path_4501" data-name="Path 4501" d="M954.2,186.669l-22.816.367L923.935,260.1l17.017-.274Z" fill="#ed4d55"/>
    <path id="Path_4502" data-name="Path 4502" d="M886.2,187.765l4.051,72.881,16.843-.272,1.7-72.974Z" fill="#ed4d55"/>
    <path id="Path_4503" data-name="Path 4503" d="M908.789,187.4l-1.7,72.974,16.844-.271,7.446-73.066Z" fill="#e5eff3"/>
    <path id="Path_4504" data-name="Path 4504" d="M847.933,220.261c20.267-9.988,55.611-22.533,104.131-21.8l2.133-11.788-113.082,1.824Z" fill="#c52c58" opacity="0.4"/>
    <path id="Path_4505" data-name="Path 4505" d="M960.185,185.649a6.925,6.925,0,0,1-6.812,7.036l-111.238,1.794a6.925,6.925,0,0,1-7.036-6.811l-.029-1.847a6.925,6.925,0,0,1,6.811-7.036l111.238-1.793a6.925,6.925,0,0,1,7.036,6.811Z" fill="#ed4d55"/>
    <path id="Path_4506" data-name="Path 4506" d="M945.535,234.511c-27.433,16.069-78.654,18.313-90.551,18.618l1.731,8.059,84.236-1.36Z" fill="#c52c58" opacity="0.4"/>
    <path id="Path_4507" data-name="Path 4507" d="M945.235,260.684c.063,3.823-2.187,6.962-5.022,7.006l-82.507,1.332c-2.834.045-5.184-3.017-5.245-6.841l-.03-1.847c-.063-3.823,2.188-6.961,5.023-7.006L939.96,252c2.836-.046,5.184,3.016,5.246,6.841Z" fill="#ed4d55"/>
  </g>
</svg>
